<?xml version="1.0" encoding="UTF-8"?>
<svg version="1.1" viewBox="0 0 1600 496" width="1280" height="1280" xmlns="http://www.w3.org/2000/svg">
<path transform="translate(0)" d="m0 0h1600v496h-1600v-496z" fill="#FDFDFD"/>
<path transform="translate(1028 64.6)" d="m0 0c1.01-0.0329 2.02-0.0657 3.07-0.0996 6.66-0.0475 11.7 0.793 16.7 5.54 2.76 3.86 3.38 6.55 3.43 11.3 0.0198 1.27 0.0396 2.55 0.06 3.86 0.00682 1.42 0.0133 2.83 0.0194 4.25 0.0171 1.52 0.0353 3.03 0.0547 4.55 0.049 4.18 0.0783 8.36 0.104 12.5 0.0235 3.55 0.0575 7.09 0.0911 10.6 0.304 32.6 0.338 65.2 0.361 97.8 0.00295 3.87 0.00712 7.73 0.0113 11.6 0.00592 6.15 0.00582 12.3 0.00112 18.5-0.00111 2.28-6.29e-4 4.55 0.0016 6.83 0.033 40.4 0.033 40.4-15.1 56.2-14.7 14-33.5 20-52.8 24.8-0.781 0.195-1.56 0.39-2.37 0.591-17.2 3.97-34.5 3.94-52 3.97-2.62 0.00899-5.23 0.0181-7.85 0.0274-5.47 0.0173-10.9 0.0242-16.4 0.0271-6.23 0.00361-12.5 0.0334-18.7 0.0754-6.09 0.0395-12.2 0.0502-18.3 0.0513-2.55 0.00413-5.09 0.0163-7.64 0.0375-33.5 0.257-71.8-3.19-97.1-27.6-2.28-2.53-4.21-5.11-6-8-0.376-0.589-0.753-1.18-1.14-1.79-6.53-11.5-6.29-25.1-6.19-37.9 0.00307-1.67 0.00494-3.34 0.00568-5 0.00457-3.47 0.0188-6.95 0.0412-10.4 0.0282-4.41 0.0392-8.81 0.0437-13.2 0.00521-4.26 0.0197-8.53 0.0344-12.8 0.00188-0.789 0.00376-1.58 0.0057-2.39 0.0773-25.1 0.502-47.9 18.8-67.2 22.8-22.2 57-26.5 87.6-26.4 1.62 2.83e-4 3.23 1.23e-4 4.85-4.43e-4 4.36-2.85e-4 8.73 0.00557 13.1 0.0126 4.57 0.00628 9.14 0.00684 13.7 0.00803 8.64 0.0031 17.3 0.0113 25.9 0.0213 9.84 0.0112 19.7 0.0167 29.5 0.0217 20.2 0.0104 40.5 0.028 60.7 0.0503-0.00999-0.86-0.00999-0.86-0.0202-1.74-0.0666-5.99-0.112-12-0.145-18-0.0151-2.23-0.0355-4.46-0.0615-6.7-0.0365-3.21-0.0534-6.43-0.0667-9.64-0.0155-0.992-0.031-1.98-0.0469-3.01-0.00139-5.78 0.529-9.87 3.34-15 6.42-6.09 11.7-6.39 20.2-6.44z" fill="#000100"/>
<path transform="translate(1378,123)" d="m0 0c1.02 0.0427 2.04 0.0854 3.09 0.129 2.64 0.114 5.27 0.238 7.91 0.371 1.09 0.0531 1.09 0.0531 2.2 0.107 4.68 0.271 4.68 0.271 5.8 1.39 2.58 0.471 5.16 0.901 7.75 1.31 19.4 3.29 39.1 10.1 51.1 26.6 8.49 13.1 11.3 25.2 11.3 40.7 0.00496 0.914 0.00993 1.83 0.015 2.77 0.0145 3 0.0214 5.99 0.0269 8.99 0.00283 1.03 0.00565 2.06 0.00857 3.13 0.0149 5.46 0.0242 10.9 0.0285 16.4 0.00547 5.6 0.0295 11.2 0.058 16.8 0.0187 4.34 0.0238 8.69 0.0254 13 3e-3 2.06 0.0109 4.13 0.0242 6.19 0.118 19.8-0.981 36.1-15.3 51.1h-2c-0.33 0.99-0.66 1.98-1 3-20.5 17.7-51.7 22.1-77.8 22.2-1.13 0.00657-2.26 0.0131-3.43 0.0199-3.72 0.0196-7.44 0.0314-11.2 0.0414-1.93 0.00611-1.93 0.00611-3.89 0.0124-6.11 0.0187-12.2 0.0332-18.3 0.0416-6.97 0.00972-13.9 0.0359-20.9 0.0765-6.1 0.0343-12.2 0.0457-18.3 0.0497-2.56 0.00481-5.12 0.0163-7.68 0.035-19.1 0.131-38.2-0.798-56.6-6.45-0.785-0.2-1.57-0.4-2.38-0.605-7.74-2.06-14.6-5.71-21.6-9.39-1.04-0.501-2.08-1-3.15-1.52-11.7-6.07-22.7-16.9-26.9-29.5-2.15-8.23-3.12-16.3-3.15-24.8-0.00336-0.735-0.00672-1.47-0.0102-2.23-0.00943-2.41-0.0114-4.81-0.0125-7.22-0.00322-1.7-0.00659-3.39-0.0101-5.09-0.00597-3.55-0.00784-7.11-0.00725-10.7 1.01e-4 -4.5-0.0135-9.01-0.0308-13.5-0.0112-3.51-0.0131-7.01-0.0126-10.5-0.00116-1.66-0.00549-3.32-0.0133-4.97-0.0899-21 0.574-40.9 16-56.8 6.19-5.99 12.7-11 20.3-15.2 1.59-0.893 1.59-0.893 3.2-1.8 47.1-25.1 113-16.4 165-14.2z" fill="#000100"/>
<path transform="translate(107 125)" d="m0 0c1.37-0.00669 1.37-0.00669 2.76-0.0135 0.996 1.84e-4 1.99 3.69e-4 3.02 5.59e-4 1.59-0.00552 1.59-0.00552 3.22-0.0111 3.57-0.011 7.14-0.0149 10.7-0.0187 2.55-0.00626 5.11-0.0129 7.66-0.0199 7.67-0.0192 15.3-0.0298 23-0.0387 3.62-0.00439 7.23-0.00975 10.8-0.015 12-0.017 24.1-0.0315 36.1-0.0387 3.12-0.00191 6.24-0.00383 9.36-0.00579 0.775-4.84e-4 1.55-9.67e-4 2.35-0.00147 12.6-0.0083 25.1-0.0336 37.7-0.0661 12.9-0.0331 25.8-0.0511 38.7-0.0543 7.24-0.00216 14.5-0.0109 21.7-0.0365 6.81-0.024 13.6-0.0275 20.4-0.0172 2.5 4.95e-4 4.99-0.00582 7.49-0.0196 3.42-0.0177 6.83-0.0106 10.2 0.00253 0.981-0.011 1.96-0.0219 2.97-0.0332 9.83 0.0909 18.4 2.78 25.6 9.65 5.07 5.72 6.94 11.3 6.81 18.8-0.406 5.38-2.49 9.13-6.15 13h-2c-0.33 0.99-0.66 1.98-1 3-1.54 1.21-1.54 1.21-3.54 2.38-0.737 0.441-1.47 0.881-2.23 1.33-0.795 0.464-1.59 0.929-2.41 1.41-1.65 0.986-3.3 1.97-4.95 2.96-0.823 0.491-1.65 0.982-2.49 1.49-3.31 2-6.56 4.07-9.8 6.18-0.569 0.368-1.14 0.736-1.72 1.12-1.61 1.04-3.23 2.09-4.84 3.13-1.83 1.17-3.67 2.34-5.5 3.5-4.71 2.99-9.4 6-14.1 9.02-3.02 1.94-6.04 3.88-9.06 5.81-5.23 3.34-10.4 6.69-15.5 10.3-4.53 3.23-9.26 5.99-14.1 8.7-2.8 1.7-5.21 3.63-7.76 5.68-2.04 1.3-4.11 2.57-6.19 3.81-4.92 2.98-9.67 6.13-14.4 9.47-3.51 2.44-7.13 4.69-10.8 6.97-2.57 1.66-5.04 3.4-7.52 5.18-3.9 2.77-7.94 5.18-12.1 7.5-5.47 3.04-10.5 6.43-15.5 10.2-3.28 2.38-6.7 4.41-10.2 6.45-3.09 1.84-6.05 3.83-9.02 5.85-3.64 2.42-7.37 4.69-11.1 6.96-2.52 1.57-2.52 1.57-4.29 4.61 0.992 0.00239 1.98 0.00478 3 0.00724 24.1 0.0588 48.3 0.135 72.4 0.228 11.7 0.0449 23.3 0.0844 35 0.111 10.2 0.023 20.4 0.0564 30.5 0.102 5.39 0.0239 10.8 0.0427 16.2 0.0489 5.07 0.00606 10.1 0.0261 15.2 0.0567 1.86 0.00877 3.72 0.0125 5.58 0.0107 20.8-0.0135 20.8-0.0135 27.2 5.15 0.443 0.588 0.887 1.18 1.34 1.78 0.696 0.882 0.696 0.882 1.41 1.78 2.55 4.01 2.24 8.09 2.22 12.7 0.00387 0.716 0.00773 1.43 0.0117 2.17-0.00637 3.43-0.0572 6.61-1.14 9.89h-2c-0.103 0.619-0.206 1.24-0.312 1.88-0.688 2.12-0.688 2.12-3.69 4.12-3.25 0.838-6.3 1.13-9.65 1.13-1.37 0.00484-1.37 0.00484-2.76 0.00977-0.991-0.00155-1.98-0.0031-3-0.00469-1.06 0.00227-2.12 0.00453-3.21 0.00687-3.56 0.00634-7.11 0.00551-10.7 0.00469-2.55 0.00299-5.1 0.00639-7.64 0.0102-6.21 0.00793-12.4 0.0111-18.6 0.0116-5.05 4.75e-4 -10.1 0.00253-15.1 0.0057-14.3 0.00881-28.6 0.0134-42.9 0.0127-0.771-4e-5 -1.54-7.99e-5 -2.34-1.21e-4 -0.772-4.09e-5 -1.54-8.18e-5 -2.34-1.24e-4 -12.5-4.06e-4 -25 0.00916-37.5 0.0233-12.9 0.0144-25.7 0.0213-38.6 0.0204-7.21-3.32e-4 -14.4 0.0024-21.6 0.0132-6.79 0.0101-13.6 0.00976-20.4 0.00248-2.49-0.00105-4.98 0.00132-7.47 0.00736-3.4 0.00772-6.8 0.00307-10.2-0.00463-0.982 0.00514-1.96 0.0103-2.98 0.0156-10.8-0.0542-20.6-2.08-28.6-9.88-4.78-5.64-6.44-10-6.33-17.4 0.692-2.66 1.67-4.55 3-7 0.45-0.996 0.45-0.996 0.909-2.01 3.25-5.92 10.3-9.55 15.9-12.9 4.55-2.78 9.04-5.58 13.4-8.69 4.73-3.38 9.64-6.39 14.6-9.41 7.94-4.85 15.7-9.94 23.4-15.1 6.54-4.37 13.1-8.62 19.8-12.8 0.852-0.552 1.7-1.1 2.58-1.67 5.19-3.33 5.19-3.33 7.42-3.33v-2c1.34-0.744 1.34-0.744 2.71-1.5 6.46-3.62 12.7-7.33 18.7-11.7 4.76-3.36 9.71-6.44 14.6-9.57 3.56-2.28 7.11-4.58 10.7-6.89 4.69-3.04 9.4-6.07 14.1-9.06 6.38-4.05 12.7-8.26 18.9-12.5 1.84-1.24 3.68-2.47 5.52-3.71 0.617-0.415 1.23-0.83 1.87-1.26 3.41-2.28 6.85-4.48 10.4-6.62 0.734-0.449 1.47-0.899 2.23-1.36 1.42-0.866 2.85-1.72 4.28-2.57 3.99-2.3 3.99-2.3 6.01-6.31-1.03-0.00239-2.06-0.00478-3.12-0.00724-25.1-0.0588-50.1-0.135-75.2-0.228-12.1-0.045-24.2-0.0844-36.4-0.111-10.6-0.023-21.1-0.0563-31.7-0.102-5.59-0.024-11.2-0.0427-16.8-0.0489-5.26-0.00604-10.5-0.026-15.8-0.0567-1.93-0.0088-3.87-0.0125-5.8-0.0107-2.64 0.00165-5.28-0.015-7.92-0.0363-1.15 0.00727-1.15 0.00727-2.32 0.0147-5.44-0.0723-9.57-1.22-13.7-4.88-4.86-6.12-5.09-11.9-4.36-19.5 1.71-6.37 4.54-10.4 10-14 2.89-0.935 5.51-1.13 8.54-1.13z" fill="#000100"/>
<path transform="translate(862 164)" d="m0 0c1.56-0.00108 3.11-0.00302 4.67-0.00575 4.17-0.00479 8.35 0.00272 12.5 0.013 4.38 0.00886 8.76 0.00702 13.1 0.00664 7.34 9.32e-4 14.7 0.00955 22 0.0233 8.49 0.0158 17 0.021 25.5 0.0203 9.06-6.74e-4 18.1 0.00625 27.2 0.0154 2.61 0.00213 5.22 0.00284 7.83 0.00324 4.08 1e-3 8.16 0.00707 12.2 0.0172 1.5 0.00293 3 0.00415 4.5 0.00357 2.04-4.87e-4 4.08 0.00576 6.12 0.0124 1.14 0.00168 2.29 0.00335 3.46 0.00508 2.55 0.129 2.55 0.129 3.55 1.13 0.104 1.42 0.14 2.85 0.147 4.28 0.0107 1.39 0.0107 1.39 0.0217 2.8 0.00269 1.02 0.00538 2.04 0.00815 3.1 0.00657 1.07 0.0131 2.14 0.0199 3.24 0.0198 3.56 0.0314 7.12 0.0414 10.7 0.00408 1.21 0.00815 2.43 0.0124 3.68 0.0209 6.43 0.0352 12.9 0.0445 19.3 0.011 6.64 0.0454 13.3 0.0852 19.9 0.0262 5.1 0.0345 10.2 0.0381 15.3 0.00487 2.45 0.0165 4.89 0.035 7.34 0.0244 3.43 0.0234 6.86 0.0165 10.3 0.0192 1.51 0.0192 1.51 0.0388 3.05-0.057 7.75-1.75 13.1-7.07 18.8-18.8 14-51.4 11.6-73.4 11.5-2.46-0.0012-4.91-0.00164-7.37-0.00139-5.11-0.00155-10.2-0.00975-15.3-0.0233-6.52-0.0171-13-0.0208-19.6-0.0201-5.06-2.73e-4 -10.1-0.00577-15.2-0.013-2.4-0.00316-4.81-0.00515-7.21-0.00589-3.36-0.00219-6.73-0.011-10.1-0.0216-0.974 4.53e-4 -1.95 9.06e-4 -2.95 0.00137-15.5-0.0708-30.9-0.816-42.7-12.1-5.25-6.24-5.88-11.4-5.93-19.4-0.00818-0.835-0.0164-1.67-0.0248-2.53-0.0248-2.76-0.0414-5.52-0.0558-8.28-0.00799-1.42-0.00799-1.42-0.0161-2.86-0.0267-5-0.0461-10-0.0605-15-0.0133-4.13-0.0412-8.26-0.082-12.4-0.0494-5-0.0741-9.99-0.0812-15-0.00669-1.9-0.0219-3.8-0.0459-5.7-0.236-19.8-0.236-19.8 7.24-27.7 4.13-4.02 8.97-6.24 14.3-8.22 0.737-0.277 1.47-0.554 2.23-0.84 12.8-4.33 26.7-4.46 40.1-4.4z" fill="#FDFDFD"/>
<path transform="translate(708,124)" d="m0 0c3.05 2.56 5.23 5.45 7 9 0.0982 1.97 0.131 3.94 0.134 5.91 0.00426 1.26 0.00853 2.52 0.0129 3.82-3.5e-4 1.4-8.11e-4 2.81-0.00137 4.21 0.00299 1.47 0.00639 2.95 0.0102 4.42 0.00886 4.01 0.0112 8.02 0.0118 12 9.49e-4 3.35 0.00463 6.7 0.00817 10 0.00815 7.91 0.0106 15.8 0.00987 23.7-6e-4 8.15 0.00993 16.3 0.0257 24.4 0.0131 7 0.0184 14 0.0178 21-2.54e-4 4.18 0.00257 8.36 0.0132 12.5 0.00972 3.94 0.00973 7.87 0.00248 11.8-0.00104 1.44 0.00129 2.88 0.00736 4.32 0.0614 15.6-2.44 27-13.5 38.5-4.89 4.63-9.72 8.21-15.8 11.2-1.01 0.5-2.03 1-3.07 1.52-13.4 6.15-27.5 9.25-42 11.7-0.9 0.155-1.8 0.31-2.73 0.469-22.2 3.48-44.7 3.65-67.1 3.54-2.84-0.0108-5.68-0.0104-8.51-0.01-14.4-4.21e-4 -28.8-0.14-43.2-0.527-1.39-0.0371-2.78-0.0722-4.16-0.105-18.4-0.446-36.7-2.99-54.2-8.55-0.941-0.284-1.88-0.567-2.85-0.859-16.3-5.37-30.4-15.1-38.4-30.6-4.66-10.7-5.04-22-5.02-33.5-0.00436-1.36-0.00955-2.71-0.0155-4.07-0.0133-3.65-0.014-7.29-0.0114-10.9 0.00108-3.06-0.00383-6.11-0.00861-9.17-0.011-7.21-0.0116-14.4-0.00549-21.6 0.00605-7.42-0.00631-14.8-0.0276-22.3-0.0176-6.4-0.0236-12.8-0.0204-19.2 0.00181-3.81-7.57e-4 -7.62-0.0147-11.4-0.0126-3.58-0.0106-7.16 0.00241-10.7 0.00347-1.93-0.00777-3.85-0.0196-5.78 0.049-8.14 0.518-15.2 5.77-21.7 5.84-4.59 11.4-4.4 18.5-4.38 0.968-0.0161 1.94-0.0322 2.93-0.0488 5.82-0.00396 10.1 0.389 15.2 3.36 1.74 2.05 1.74 2.05 2.88 4.31 0.389 0.739 0.779 1.48 1.18 2.24 1.81 4.68 2.07 9.39 2.08 14.4 0.00401 1.16 0.00802 2.32 0.0121 3.52-5.29e-4 1.26-0.00106 2.52-0.0016 3.82 0.00303 1.35 0.00656 2.7 0.0105 4.05 0.00786 2.9 0.013 5.8 0.0163 8.7 0.00593 4.59 0.0225 9.18 0.0413 13.8 0.00634 1.57 0.0127 3.15 0.019 4.72 0.00317 0.788 0.00633 1.58 0.00959 2.39 0.042 10.7 0.0751 21.4 0.0874 32 0.00838 7.21 0.0309 14.4 0.0694 21.6 0.0197 3.81 0.0322 7.63 0.0272 11.4-0.00465 3.59 0.00917 7.17 0.037 10.8 0.0102 1.94 6.65e-4 3.88-0.00949 5.81 0.0688 6.41 0.128 10.6 4.55 15.4 13.9 11.8 36.5 12.1 53.8 12.2 1.02 0.00496 2.03 0.00993 3.08 0.015 3.33 0.0145 6.66 0.0214 9.99 0.0269 1.15 0.00283 2.3 0.00565 3.49 0.00857 6.1 0.0149 12.2 0.0242 18.3 0.0285 6.23 0.00545 12.5 0.0294 18.7 0.058 4.85 0.0188 9.71 0.0238 14.6 0.0254 2.29 0.00298 4.59 0.0109 6.88 0.0242 19.8 0.107 40.5-0.109 59.2-7.35 0.878-0.309 1.76-0.619 2.66-0.938 3.61-1.64 5-3.88 7.34-7.06 1.06-3.17 1.13-5.41 1.14-8.74 0.00545-1.2 0.0109-2.39 0.0165-3.63 0.00104-1.32 0.00208-2.63 0.00316-3.99 0.00467-1.4 0.00981-2.8 0.0154-4.19 0.0113-3.01 0.0197-6.02 0.0261-9.04 0.0107-4.77 0.0309-9.53 0.0531-14.3 0.0619-13.6 0.116-27.1 0.149-40.7 0.0184-7.48 0.0473-15 0.088-22.5 0.021-3.96 0.0365-7.92 0.0388-11.9 0.00215-3.73 0.0181-7.45 0.0444-11.2 0.0106-2.01 0.00645-4.03 0.00182-6.04 0.125-13.6 0.125-13.6 5.12-18.6 10.1-5.99 24.2-7.66 35.3-3.29z" fill="#000100"/>
<path transform="translate(1298 162)" d="m0 0c1.98-0.00135 3.96-0.0033 5.94-0.0058 4.12-0.00292 8.25 0.00126 12.4 0.0107 5.21 0.0113 10.4 0.00465 15.6-0.00686 36.7-0.0694 36.7-0.0694 51.4 1.1 0.892 0.0691 1.78 0.138 2.7 0.209 7.94 0.776 14.9 3.2 22 6.96 0.784 0.392 1.57 0.784 2.38 1.19 0.804 0.402 0.804 0.402 1.62 0.812v2h2c1.25 1.47 1.25 1.47 2.56 3.5 0.652 0.975 0.652 0.975 1.32 1.97 2.59 5.85 2.27 12.7 2.27 19 0.00336 0.809 0.00672 1.62 0.0102 2.45 0.00943 2.65 0.0114 5.3 0.0125 7.95 0.00322 1.86 0.00658 3.71 0.0101 5.57 0.00597 3.88 0.00784 7.75 0.00725 11.6-1.02e-4 4.96 0.0136 9.92 0.0308 14.9 0.0111 3.83 0.0131 7.65 0.0126 11.5 0.00118 1.83 0.00558 3.66 0.0133 5.48 0.00984 2.56 0.00691 5.12 8.95e-4 7.67 0.00562 0.748 0.0112 1.5 0.017 2.27-0.0337 5.66-0.502 10.9-4.14 15.4-4.85 4.16-8.96 6.96-15.1 8.67-0.759 0.253-1.52 0.505-2.3 0.766-5.71 1.86-11.4 2.94-17.3 3.8-2.32 0.188-2.32 0.188-3.37 1.43-1.36 0.104-2.73 0.14-4.1 0.147-1.33 0.0107-1.33 0.0107-2.68 0.0217-0.98 0.00269-1.96 0.00538-2.97 0.00815-1.54 0.00986-1.54 0.00986-3.11 0.0199-3.42 0.0198-6.85 0.0314-10.3 0.0414-1.76 0.00611-1.76 0.00611-3.55 0.0124-6.23 0.0209-12.5 0.0352-18.7 0.0445-6.38 0.011-12.8 0.0452-19.1 0.0852-4.95 0.0264-9.89 0.0345-14.8 0.0381-2.35 0.00481-4.7 0.0163-7.04 0.035-22.4 0.167-46.2-0.415-64.7-14.4-4.76-5.27-5.28-10.9-5.23-17.7-0.00526-0.84-0.0105-1.68-0.0159-2.55-0.0131-2.76-0.00449-5.52 0.00568-8.27-0.00202-1.93-0.00494-3.85-0.0087-5.78-0.00441-4.03 0.00198-8.06 0.016-12.1 0.0171-5.16 0.00724-10.3-0.0107-15.5-0.0109-3.97-0.00738-7.95 3.83e-4 -11.9 2e-3 -1.9-4.4e-4 -3.8-0.00744-5.7-0.00764-2.66 0.00403-5.32 0.0207-7.98-0.00607-0.781-0.0121-1.56-0.0184-2.37 0.082-7.08 2.58-12.1 7.41-17.2 19.1-15.6 45.7-15.3 69-15.3z" fill="#FDFDFD"/>
<path transform="translate(1132,124)" d="m0 0c5.75 4.94 6.45 10.8 7 18 0.137 3.87 0.14 7.73 0.133 11.6 0.0015 1.18 3e-3 2.35 0.00455 3.57 0.0024 4.01-0.00402 8.01-0.0124 12-0.00228 1.41-0.00452 2.83-0.00671 4.24-0.0156 9.11-0.0471 18.2-0.0838 27.3-0.0264 6.69-0.0459 13.4-0.0628 20.1-0.0338 13.3-0.0843 26.6-0.159 39.9-0.0375 6.75-0.0686 13.5-0.0833 20.2-0.0142 6.45-0.0493 12.9-0.0977 19.3-0.0148 2.41-0.0229 4.82-0.0237 7.22-0.00235 3.33-0.0293 6.65-0.0622 9.97 0.00503 0.972 0.0101 1.94 0.0152 2.94-0.0929 6.04-1 9.67-4.56 14.6-5.37 3.2-11.9 2.33-17.9 2.31-1.17 0.0161-2.33 0.0322-3.54 0.0488-7.26 0.00414-11.7-0.738-17.8-4.92-5.7-7.94-4.03-20.2-4.01-29.5-0.00271-1.71-0.00628-3.43-0.0106-5.14-0.00908-4.63-0.0056-9.26 7.58e-4 -13.9 0.00509-4.87 3.61e-4 -9.73-0.00277-14.6-0.00363-8.17 0.00114-16.3 0.0107-24.5 0.0109-9.42 0.00737-18.8-0.00365-28.3-0.00911-8.11-0.0103-16.2-0.00512-24.3 0.0031-4.83 0.00357-9.67-0.00307-14.5-0.00582-4.55-0.00169-9.1 0.00979-13.6 0.00262-1.66 0.00192-3.32-0.00253-4.98-0.0652-26.8-0.0652-26.8 6.63-33.8 9.16-7.12 24.5-5.15 34.6-1.27z" fill="#000100"/>
<path transform="translate(1135 74.2)" d="m0 0c5.51 4.85 9.61 10.5 10.2 18 0.243 8.08-1.78 13.1-7.25 19.1-7.85 7.17-19.8 6.37-29.8 5.95-4.51-0.398-8.24-1.95-12.1-4.19-1.67-0.959-1.67-0.959-3.38-1.94-4.21-3.31-7.2-6.85-8.62-12.1-0.655-6.09 0.139-10.5 3-16 0.428-0.826 0.856-1.65 1.3-2.5 1.94-2.85 3.65-4.01 6.64-5.68 1.28-0.733 1.28-0.733 2.59-1.48 0.816-0.44 1.63-0.879 2.47-1.33 0.62-0.367 1.24-0.735 1.88-1.11 9.94-4.16 24.3-2.87 33.1 3.3z" fill="#000100"/>
</svg>
