<?xml version="1.0" encoding="UTF-8"?>
<svg version="1.1" viewBox="0 0 1600 1600" width="1280" height="1280" xmlns="http://www.w3.org/2000/svg">
<path transform="translate(0)" d="m0 0h1600v1600h-1600v-1600z" fill="#FDFDFD"/>
<path transform="translate(430,369)" d="m0 0c104 0.913 104 0.913 138 1.56 14.4 0.274 28.8 0.485 43.2 0.615 44.3 0.408 88.6 1.19 133 2.21 3.65 0.0837 7.31 0.167 11 0.251 1.46 0.0335 2.93 0.0669 4.39 0.1 1.09 0.0249 1.09 0.0249 2.2 0.0502 1.46 0.0334 2.93 0.0669 4.39 0.1 4.37 0.0999 8.74 0.2 13.1 0.3 1.45 0.0332 2.9 0.0663 4.36 0.0995 29.2 0.668 58.4 1.29 87.7 1.84 1.63 0.0306 1.63 0.0306 3.3 0.0619 43.4 0.809 86.8 1.25 130 1.62 16 0.139 32 0.326 48 0.554 0.773 0.011 1.55 0.022 2.34 0.0333 3.75 0.0534 7.5 0.107 11.3 0.162 19.1 0.276 38.1 0.488 57.2 0.634 63.5 0.493 127 1.43 190 2.66 12.4 0.239 24.8 0.472 37.2 0.704 25.3 0.474 50.6 0.956 75.9 1.44 2.71 5.42-0.569 14-2.01 19.6-0.425 1.7-0.85 3.41-1.28 5.11-0.227 0.901-0.454 1.8-0.688 2.73-4.8 19.1-9.28 38.2-13.6 57.4-4.97 21.8-10.1 43.6-15.5 65.4-2.77 11.2-5.47 22.5-8.18 33.7-0.27 1.12-0.539 2.24-0.817 3.39-3.09 12.8-6.16 25.7-9.19 38.5-0.471 1.99-0.942 3.98-1.41 5.97-1.5 6.34-2.99 12.7-4.48 19-2.59 11-5.23 22-8.07 32.9-0.236 0.915-0.473 1.83-0.716 2.77-5.99 22.8-15.8 41.3-32.1 58.6-0.86 0.94-0.86 0.94-1.74 1.9-22.9 24.1-56.2 28.7-87.5 32.3-0.921 0.104-1.84 0.208-2.79 0.316-29.3 3.31-58.7 6.22-88.1 9.19-9.51 0.962-19 1.93-28.5 2.89-0.875 0.0889-1.75 0.178-2.65 0.269-4.44 0.451-8.87 0.902-13.3 1.35-4.46 0.453-8.92 0.907-13.4 1.36-33.6 3.42-67.3 6.87-101 10.3-4.23 0.436-8.46 0.872-12.7 1.31-16.3 1.68-32.5 3.35-48.8 5.03-20 2.07-40.1 4.13-60.1 6.2-3.29 0.339-6.59 0.678-9.88 1.02-23.3 2.4-46.6 4.78-69.9 7.12-1.56 0.157-1.56 0.157-3.15 0.317-5.22 0.524-10.4 1.05-15.7 1.57-1.02 0.103-2.05 0.206-3.11 0.312-2.05 0.206-4.1 0.412-6.15 0.618-36.2 3.63-72.4 7.43-109 11.3-31.8 3.42-31.8 3.42-46.7 4.9-1.91 0.19-3.81 0.385-5.72 0.579-14.8 1.45-14.8 1.45-19.7 0.834-2.9-2.9-3.62-6.5-4.84-10.3-0.275-0.853-0.55-1.71-0.833-2.58-0.595-1.85-1.19-3.69-1.78-5.54-1.58-4.96-3.18-9.91-4.78-14.9-0.323-1-0.645-2-0.978-3.04-2.79-8.65-5.65-17.3-8.55-25.9-5.89-17.6-11.7-35.2-17.4-52.9-4.19-12.9-8.44-25.7-12.7-38.5-3.88-11.6-7.74-23.3-11.6-34.9-0.334-1.02-0.334-1.02-0.676-2.06-1.15-3.51-2.3-7.02-3.45-10.5-7.2-22-14.4-43.9-21.8-65.9-0.307-0.921-0.614-1.84-0.931-2.79-3-9-6.01-18-9.02-27-6.51-19.5-13-39-19.3-58.5-3.34-10.3-6.75-20.7-10.2-31-0.533-1.6-1.07-3.2-1.6-4.8-0.323-0.968-0.323-0.968-0.652-1.96-0.468-1.4-0.935-2.81-1.4-4.21-1.59-4.79-3.2-9.57-4.81-14.3-2-5.95-3.99-11.9-5.97-17.9-0.79-2.37-1.59-4.74-2.39-7.1-1.12-3.32-2.23-6.64-3.33-9.97-0.344-1-0.688-2-1.04-3.04-0.302-0.926-0.604-1.85-0.916-2.81-0.27-0.806-0.54-1.61-0.819-2.44-0.399-2.72 0.238-3.92 1.68-6.21z" fill="#FDFDFD"/>
<path transform="translate(337,155)" d="m0 0c0.946 0.864 1.89 1.73 2.87 2.62 27.8 26.5 38.6 62.9 50.1 98.4 0.431 1.32 0.431 1.32 0.871 2.67 2.62 8.05 5.24 16.1 7.85 24.1 0.264 0.814 0.527 1.63 0.799 2.47 0.488 1.51 0.975 3.01 1.46 4.52 1.18 3.66 2.38 7.31 3.6 11 0.399 1.2 0.399 1.2 0.807 2.42 0.201 0.602 0.402 1.2 0.609 1.82 68.8 1.46 68.8 1.46 138 2.41 27.4 0.274 54.9 0.706 82.3 1.24 0.787 0.0154 1.57 0.0307 2.38 0.0465 7.38 0.144 14.8 0.289 22.2 0.434 62.5 1.23 125 2.26 187 2.99 0.883 0.0103 1.77 0.0206 2.68 0.0312 35.9 0.418 71.8 0.807 108 1.12 1.71 0.0148 1.71 0.0148 3.46 0.0298 5.52 0.0476 11 0.0949 16.6 0.142 1.05 0.00903 2.11 0.0181 3.19 0.0274 2.11 0.0181 4.21 0.0361 6.32 0.0541 51.7 0.444 103 1.42 155 2.47 1.1 0.0223 2.19 0.0447 3.32 0.0677 23 0.47 46 0.951 69 1.43 5.47 0.115 10.9 0.23 16.4 0.345 3.81 0.0799 7.61 0.16 11.4 0.24 23.9 0.505 47.8 0.895 71.7 1.12 1.41 0.0135 1.41 0.0135 2.86 0.0273 1.94 0.0185 3.87 0.037 5.81 0.0554 37.9 0.361 75.7 0.823 114 1.58 3.11 0.0611 6.22 0.119 9.33 0.175 4.88 0.0892 9.75 0.188 14.6 0.294 1.78 0.0375 3.57 0.072 5.35 0.103 24.4 0.436 24.4 0.436 32.5 7.55 8.74 10.3 10.8 18.3 10.2 31.5-0.622 7.49-2.63 14.7-4.46 22-0.454 1.86-0.906 3.73-1.36 5.59-0.955 3.95-1.92 7.89-2.9 11.8-1.5 6.07-2.96 12.2-4.41 18.2-2 8.39-4.01 16.8-6.03 25.2-2.94 12.2-5.87 24.4-8.8 36.6-0.241 1-0.482 2.01-0.73 3.04-4.52 18.8-9.02 37.7-13.5 56.5-5.22 21.9-10.4 43.7-15.7 65.6-0.476 1.98-0.953 3.96-1.43 5.94-0.234 0.973-0.468 1.95-0.709 2.95-1.79 7.44-3.56 14.9-5.33 22.3-17.3 72.8-17.3 72.8-30.8 97.7l-1.75 3.24c-17.2 30.6-43.7 53.3-74.3 69.8l-3.25 1.77c-6.78 3.41-13.9 5.66-21.1 7.85-0.901 0.277-1.8 0.555-2.73 0.841-22.2 6.39-45.5 8.08-68.3 10.4-4.67 0.479-9.34 0.967-14 1.45-10.9 1.13-21.8 2.25-32.6 3.37-4.78 0.49-9.55 0.982-14.3 1.47-24.1 2.48-48.2 4.94-72.3 7.39-11.7 1.19-23.3 2.38-35 3.56-2.18 0.222-4.36 0.444-6.54 0.666-3.28 0.334-6.56 0.668-9.83 1-6.56 0.668-13.1 1.34-19.7 2-42.2 4.3-84.5 8.62-127 13-0.838 0.0859-1.68 0.172-2.54 0.26-15.1 1.55-30.2 3.09-45.3 4.64-19.7 2.02-39.4 4.04-59.1 6.05-14 1.44-28.1 2.87-42.1 4.31-8.21 0.841-16.4 1.68-24.6 2.52-16.4 1.67-32.7 3.35-49.1 5.05-7.99 0.828-16 1.65-24 2.47-7.85 0.804-15.7 1.62-23.5 2.44-4.18 0.436-8.35 0.869-12.5 1.29-3.89 0.395-7.77 0.799-11.7 1.21-1.42 0.149-2.84 0.294-4.26 0.436-13.5 0.661-13.5 0.661-24.7 6.89-0.335 0.901-0.67 1.8-1.01 2.73-0.394 1-0.788 2-1.19 3.04-0.373 1.06-0.746 2.13-1.13 3.22-0.413 1.08-0.826 2.17-1.25 3.29-1.18 3.12-2.31 6.26-3.44 9.4-0.552 1.46-1.11 2.92-1.67 4.38-8.32 22.2-7.62 43.4 2.23 65.1 10.5 20.5 28.7 35.2 50.4 42.6 6.49 1.59 12.8 2.32 19.4 2.41 0.881 0.0191 1.76 0.0383 2.67 0.058 2.89 0.0596 5.78 0.106 8.66 0.15 2.06 0.0378 4.12 0.0758 6.18 0.114 20.6 0.362 41.1 0.398 61.7 0.368 5.39-0.00655 10.8-0.00696 16.2-0.00818 9.32-0.00285 18.6-0.00924 28-0.0181 13.6-0.0128 27.3-0.0187 40.9-0.0229 22.3-0.00704 44.7-0.0178 67-0.0317 0.665-4.14e-4 1.33-8.27e-4 2.01-0.00125 12.7-0.00792 25.4-0.0161 38.2-0.0245 232-0.152 232-0.152 311 0.282 5.36 0.029 10.7 0.051 16.1 0.0697 6.94 0.0245 13.9 0.0647 20.8 0.117 2.47 0.0165 4.93 0.0282 7.4 0.0345 3.3 0.00951 6.6 0.0372 9.91 0.07 0.943-0.00144 1.89-0.00287 2.86-0.00435 6.53 0.0935 12.1 1.07 17.6 4.91 7.51 7.84 13.2 16.8 13.2 27.9-0.228 10.1-3.02 15.1-10 22.4-12.3 11.7-33.2 8.49-48.9 8.46-2.61 0.00302-5.21 0.00691-7.82 0.0116-5.65 0.00873-11.3 0.0101-17 0.0065-8.41-0.00532-16.8 8.05e-4 -25.2 0.00908-15.9 0.0152-31.8 0.0169-47.7 0.0145-12.3-0.00184-24.6-6.82e-5 -36.9 0.00422-1.77 6.02e-4 -3.53 0.0012-5.3 0.0018-2.66 9.07e-4 -5.33 0.00182-7.99 0.00273-24.8 0.00843-49.5 0.0128-74.3 0.00859-1.4-2.35e-4 -1.4-2.35e-4 -2.83-4.74e-4 -4.73-8.06e-4 -9.46-0.00165-14.2-0.00251-0.939-1.71e-4 -1.88-3.42e-4 -2.85-5.18e-4 -1.9-3.47e-4 -3.8-6.95e-4 -5.7-0.00105-29.5-0.00535-59 0.00256-88.5 0.021-33.2 0.0208-66.4 0.0314-99.6 0.0274-3.55-3.95e-4 -7.09-7.57e-4 -10.6-0.0011-0.873-9.07e-5 -1.75-1.81e-4 -2.65-2.75e-4 -13.1-0.00116-26.3 0.00545-39.4 0.0161-15 0.0121-29.9 0.0136-44.9 0.00121-8.35-0.00659-16.7-0.00509-25.1 0.00859-5.6 0.00833-11.2 0.00544-16.8-0.00598-3.18-0.00618-6.35-0.00635-9.53 0.00386-12.9 0.0387-25.7-0.375-38.6-1.71-1.12-0.115-2.25-0.229-3.4-0.348-17.6-2.01-34.4-7.39-49.7-16.3-0.675-0.391-1.35-0.782-2.05-1.18-8.94-5.24-17.1-11-25-17.8-0.882-0.749-1.76-1.5-2.67-2.27-4.68-4.03-4.68-4.03-6.33-5.73v-2h-2c-25.7-26.6-38.7-65.3-38.2-102 0.846-27.8 11.4-52.4 22-77.8 3.35-8.08 4.47-12.8 1.13-21-3.21-8.15-5.88-16.5-8.56-24.8-1.54-4.78-3.09-9.56-4.63-14.3-0.312-0.964-0.624-1.93-0.946-2.92-2.91-8.98-5.88-17.9-8.87-26.9-0.366-1.1-0.366-1.1-0.739-2.21-1.22-3.66-2.45-7.33-3.68-11-1.46-4.37-2.92-8.75-4.38-13.1-0.242-0.728-0.485-1.46-0.735-2.21-0.74-2.22-1.48-4.44-2.22-6.66-2.88-8.66-5.77-17.3-8.67-26-6.38-19.1-12.7-38.2-18.9-57.3-4.06-12.5-8.19-25-12.4-37.5-3.8-11.3-7.52-22.7-11.2-34.1-5.41-16.7-11-33.4-16.5-50.1-2.09-6.25-4.17-12.5-6.26-18.8-1.22-3.68-2.45-7.35-3.68-11-0.551-1.65-1.1-3.3-1.65-4.96-0.297-0.891-0.594-1.78-0.9-2.7-3.26-9.79-3.26-9.79-4.49-13.5-0.85-2.55-1.7-5.1-2.55-7.65-1.97-5.92-3.95-11.8-5.92-17.8-1.08-3.24-2.16-6.48-3.24-9.72-0.21-0.631-0.42-1.26-0.637-1.91-2.54-7.62-5.09-15.2-7.64-22.9-5.35-16-10.6-32-15.8-48.1-3.86-11.9-7.77-23.8-11.7-35.7-0.247-0.74-0.494-1.48-0.749-2.24-1.97-5.89-3.94-11.8-5.91-17.7-1.44-4.29-2.87-8.58-4.3-12.9-0.485-1.45-0.97-2.9-1.46-4.35-3.24-9.69-6.42-19.4-9.55-29.1-0.706-2.19-1.41-4.37-2.12-6.56-1.04-3.21-2.07-6.42-3.1-9.63-9.85-30.9-20.3-60.4-50.5-76.5-11.5-5.56-23.5-7.82-36.1-8.36-0.964-0.042-1.93-0.0841-2.92-0.127-10.1-0.408-20.2-0.489-30.3-0.523-3.33-0.0121-6.66-0.0316-9.99-0.0531-9.45-0.0608-18.9-0.116-28.4-0.149-5.83-0.021-11.7-0.0563-17.5-0.101-2.2-0.0141-4.4-0.0229-6.61-0.0261-3.07-0.00493-6.15-0.0281-9.22-0.0553-0.893 0.00301-1.79 0.00601-2.7 0.00911-11.8-0.154-20-3.9-28.3-12.2-4.69-6.78-7.59-13.9-6.25-22.2 2.19-8.83 6.13-17.9 14-22.9 7.46-3.82 13.3-5.22 21.6-5.39 1.3-0.0313 1.3-0.0313 2.63-0.0632 2.88-0.0667 5.75-0.125 8.63-0.183 0.993-0.0208 1.99-0.0417 3.01-0.0632 145-3 145-3 189 37.6zm93 214c-1.27 1.61-1.27 1.61-2 4 0.513 2.5 1.12 4.68 1.95 7.07 0.349 1.06 0.349 1.06 0.705 2.14 0.778 2.35 1.58 4.7 2.38 7.05 0.552 1.66 1.1 3.31 1.65 4.97 1.47 4.43 2.96 8.85 4.45 13.3 1.54 4.56 3.06 9.13 4.58 13.7 2.09 6.27 4.18 12.5 6.28 18.8 3.55 10.6 7.04 21.2 10.5 31.9 3.92 12.2 7.9 24.3 12 36.4 0.516 1.55 1.03 3.09 1.55 4.64 1.39 4.16 2.78 8.32 4.16 12.5 1.48 4.43 2.96 8.87 4.44 13.3 0.302 0.905 0.604 1.81 0.915 2.74 2.52 7.55 5.04 15.1 7.56 22.6 1.6 4.81 3.21 9.62 4.82 14.4 7.34 22 14.6 43.9 21.8 66 5.58 17.3 11.3 34.5 17.1 51.7 1.68 5.01 3.36 10 5.03 15 0.241 0.722 0.482 1.44 0.731 2.19 4.92 14.7 9.74 29.5 14.5 44.3 4.99 15.3 10 30.6 15.2 45.9 2.44 7.29 4.79 14.6 6.92 22 0.733 2.62 0.733 2.62 2.89 4.49 6.89 0.796 14.1-0.277 21-1.01 1.05-0.107 2.1-0.215 3.18-0.325 3.47-0.356 6.93-0.719 10.4-1.08 2.47-0.255 4.94-0.51 7.41-0.764 5.87-0.605 11.7-1.22 17.6-1.83 7.08-0.738 14.2-1.47 21.3-2.2 10.3-1.06 20.5-2.13 30.8-3.19 15.1-1.57 30.1-3.13 45.2-4.69 1.21-0.125 2.41-0.249 3.65-0.378 23.3-2.41 46.6-4.81 69.9-7.21 2.16-0.222 4.31-0.444 6.47-0.666 29.8-3.07 59.6-6.12 89.5-9.13 1.47-0.148 2.93-0.297 4.4-0.445 6.65-0.672 13.3-1.34 19.9-2.02 2.97-0.301 5.94-0.601 8.91-0.902 1.49-0.151 2.98-0.301 4.47-0.452 40.3-4.08 80.6-8.21 121-12.5 22.9-2.43 45.7-4.8 68.6-7.1 1.82-0.184 1.82-0.184 3.68-0.371 11.9-1.2 23.8-2.39 35.7-3.58 21.9-2.17 43.7-4.41 65.5-6.87 0.913-0.103 1.83-0.205 2.77-0.311 31.8-3.58 60.7-8.57 84.8-31l2.68-2.43c18.1-17.1 27.3-39.4 33.4-63.1 0.301-1.16 0.602-2.33 0.912-3.52 4.17-16.3 8.01-32.6 11.9-49 1.1-4.64 2.2-9.29 3.31-13.9 1.78-7.49 3.56-15 5.33-22.5 3.19-13.4 6.39-26.9 9.59-40.3 0.918-3.86 1.84-7.72 2.75-11.6 2.75-11.6 5.51-23.1 8.3-34.7 0.251-1.04 0.502-2.08 0.76-3.15 0.248-1.03 0.496-2.06 0.752-3.12 0.369-1.53 0.369-1.53 0.745-3.09 0.485-2.01 0.971-4.03 1.46-6.04 2.96-12.3 5.87-24.6 8.72-36.9 0.224-0.968 0.224-0.968 0.453-1.96 1.61-6.94 3.21-13.9 4.8-20.8 0.523-2.27 1.05-4.54 1.57-6.81 0.236-1.04 0.472-2.07 0.715-3.14 1.1-4.75 2.34-9.32 3.9-13.9 0.29-4.16 0.29-4.16-1-8-26.5-0.511-53.1-1.02-79.6-1.51-12.3-0.231-24.7-0.465-37-0.703-63.3-1.22-127-2.13-190-2.61-18.7-0.145-37.5-0.368-56.2-0.641-3.85-0.0557-7.69-0.11-11.5-0.165-0.756-0.0108-1.51-0.0215-2.29-0.0326-16.3-0.231-32.6-0.408-48.8-0.548-43.5-0.377-87-0.845-130-1.66-1.09-0.0204-2.18-0.0408-3.3-0.0619-28.8-0.542-57.7-1.17-86.5-1.82-1.45-0.0332-2.9-0.0663-4.36-0.0995-4.37-0.0999-8.75-0.2-13.1-0.3-1.46-0.0335-2.93-0.0669-4.39-0.1-1.09-0.0249-1.09-0.0249-2.2-0.0502-1.46-0.0335-2.93-0.0669-4.39-0.1-3.65-0.0834-7.3-0.167-11-0.251-44.4-1.02-88.7-1.78-133-2.18-14.7-0.134-29.4-0.377-44.2-0.658-44.8-0.849-89.7-1.11-135-1.5z" fill="#000100"/>
<path transform="translate(1258 1223)" d="m0 0c2.19 1.92 4.35 3.86 6.5 5.81 0.686 0.614 1.37 1.23 2.08 1.86 9.93 9.37 17.4 21.3 23.9 33.1 0.353 0.638 0.707 1.28 1.07 1.93 19.3 35.4 21.5 76 10.4 114-5.39 17.4-14.5 33.9-26.5 47.7-0.697 0.819-1.39 1.64-2.11 2.48-20.4 23.4-48.2 40.8-78.9 46.5-0.918 0.176-1.84 0.352-2.78 0.533-8.98 1.56-17.8 1.83-26.9 1.78-1.12-0.00273-1.12-0.00273-2.27-0.00552-11.3-0.0462-22.1-0.575-33-3.31-1.01-0.233-1.01-0.233-2.03-0.472-24-5.66-48.3-19.2-66-36.5v-2h-2c-2.58-2.43-4.75-5.26-7-8-0.781-0.945-1.56-1.89-2.37-2.86-6.59-8.16-11.8-16.8-16.6-26.1-0.471-0.898-0.941-1.8-1.43-2.72-15.6-32-18.7-68.3-8.57-102 0.313-1.16 0.626-2.32 0.949-3.51 6.82-23.1 20.4-43.4 37.1-60.5 0.528-0.555 1.06-1.11 1.6-1.68 51.3-52.9 140-52.8 195-6.13z" fill="#000100"/>
<path transform="translate(638,1222)" d="m0 0c0.949 0.781 1.9 1.56 2.88 2.37 6.15 5.27 11.2 11.2 16.1 17.6 1.02 1.33 1.02 1.33 2.06 2.69 17.9 24 30 52 30.9 82.3 0.04 1.03 0.0799 2.07 0.121 3.13 0.799 40.5-13.4 77.3-41.1 107-18.6 19.3-43 32.7-69 39-0.657 0.175-1.31 0.35-1.99 0.53-20.6 5.4-46.4 4.37-67-0.53-1.03-0.233-1.03-0.233-2.08-0.472-23.4-5.46-43.9-18.1-61.9-33.5-0.655-0.532-1.31-1.06-1.98-1.61-4.53-3.72-8.31-7.86-12-12.4-0.775-0.937-1.55-1.87-2.35-2.84-22.9-28.3-34.4-65.9-30.9-102 3.74-34.4 17.5-64.8 41.2-90.1 0.7-0.788 1.4-1.58 2.12-2.39 7.82-8.41 17.3-14.4 26.9-20.6 1.04-0.694 2.08-1.39 3.16-2.1 50-31.5 121-23.6 165 14.1z" fill="#000100"/>
<path transform="translate(1219 1272)" d="m0 0c13.2 12.6 22.7 28.6 26.4 46.5 0.273 1.29 0.273 1.29 0.551 2.6 2.97 22.5-0.71 43.5-13.5 62.3-1.91 2.47-3.9 4.79-6.02 7.09-1.07 1.17-1.07 1.17-2.15 2.36-15.1 15.9-33.8 23.6-55.5 24.1-22.7 0.159-40.8-4.37-58.3-19.5-0.735-0.58-1.47-1.16-2.23-1.76-15.4-12.6-24-32.9-26.8-52.2-1.34-23.8 6.41-46.2 21.6-64.6 4.63-4.79 9.95-8.61 15.4-12.4 0.677-0.504 1.35-1.01 2.05-1.53 6.04-4.19 13.2-6.42 20.1-8.83 1.62-0.566 3.22-1.16 4.83-1.76 25.1-7.41 54.1 0.965 73.6 17.6z" fill="#FDFDFD"/>
<path transform="translate(595 1268)" d="m0 0c0.764 0.623 1.53 1.25 2.32 1.89 0.63 0.468 1.26 0.936 1.91 1.42 14.4 11.2 23.8 30.9 27.7 48.3 2.94 24.7-1.95 46.9-17 66.9-7.45 9.21-15.5 15.3-25.6 21.4-1.05 0.652-1.05 0.652-2.12 1.32-16.6 9.42-41.5 9.63-59.6 5.25-19.9-6.1-38.5-19.4-48.8-37.7-10.8-21.1-14.5-41.5-8.47-64.9 1.39-4.16 3.07-8.07 5-12 0.454-0.935 0.908-1.87 1.38-2.83 10.2-19.8 27.4-34.2 48.4-41.5 25.8-7.59 53.4-4.43 74.9 12.4z" fill="#FDFDFD"/>
</svg>
